<svg xmlns="http://www.w3.org/2000/svg" width="40" height="17" viewBox="0 0 40 17">
    <path fill="#B2B2B2" fill-rule="evenodd" d="M39.368 8.37c.231-.023.4.036.496.196.527.876-2.594 1.98-5.951 3.974-3.357 1.993-6.85 3.844-6.947 3.684-.095-.159 3.256-2.55 6.479-4.463 1.894-1.124 3.597-2.333 4.786-2.96-1.099-.636-2.82-2.143-4.927-3.58C30.08 3.02 26.925.637 27.03.482c.104-.154 3.687 1.874 6.783 3.986C36.31 6.17 38.8 7.482 39.368 8.37zM17.941 6.093c8.245.02 15.726-.454 15.726.568 0 1.021-7.137.36-15.726.34C9.35 6.981.667 6.768.667 6.581c0-.185 9.028-.508 17.274-.488zm0 4c8.245.02 15.726-.454 15.726.568 0 1.021-7.137.36-15.726.34-8.59-.02-17.274-.233-17.274-.42 0-.185 9.028-.508 17.274-.488z"/>
</svg>
