<svg xmlns="http://www.w3.org/2000/svg" width="47" height="30" viewBox="0 0 47 30">
    <g fill="none" fill-rule="evenodd">
        <path fill="#6372DA" d="M33.422 2.259h5.453V.524h-5.453zM24.509 8.328h7.55V2.656h-7.55z"/>
        <path fill="#FCB68D" d="M24.364 10.966h7.695v-1.77h-7.695z"/>
        <path fill="#6372DA" d="M17.797 2.656h5.383V.813h-5.383zM17.797 1.256L12.552.004l-.4 1.795 5.244 1.252.401-1.795"/>
        <path fill="#6372DA" d="M40.125 28.86v-1.877h1.599c.279 0 .516-.244.516-.533v-2.411h3.258l-1.36 2.14a.544.544 0 0 0 .002.587l1.35 2.094h-5.365zM9.66 25.916H5.564v-6.703h35.643v6.703H9.661zM6.846 28.86H1.472l1.36-2.14a.544.544 0 0 0-.001-.587L1.48 24.04h3.05v2.41c0 .29.237.534.517.534h1.799v1.877zM46.883 23.8a.543.543 0 0 0 .023-.545.513.513 0 0 0-.453-.28H42.24V18.68a.501.501 0 0 0-.138-.36.493.493 0 0 0-.378-.174h-2.85V3.812h-5.452v14.333h-1.363v-6.168h-7.55v6.168H23.18V3.668h-5.383v14.477h-3.819l3.198-14.108-5.245-1.252L8.5 18.145H5.047a.533.533 0 0 0-.516.534v4.295H.518a.513.513 0 0 0-.454.282.548.548 0 0 0 .026.546l1.695 2.628L.088 29.1a.543.543 0 0 0-.023.545c.09.172.264.28.453.28H7.36a.523.523 0 0 0 .515-.533v-2.409h31.22v2.41c0 .294.23.532.515.532h6.843c.19 0 .364-.108.454-.281a.548.548 0 0 0-.026-.547l-1.696-2.628 1.698-2.67z"/>
    </g>
</svg>
