<svg width="137" height="38" xmlns="http://www.w3.org/2000/svg">
 <!-- Generator: sketchtool 49.3 (51167) - http://www.bohemiancoding.com/sketch -->
 <title>3AA9DD4C-18AB-4064-8BF9-F969402CC60E</title>
 <desc>Created with sketchtool.</desc>

 <g>
  <title>background</title>
  <rect fill="none" id="canvas_background" height="402" width="582" y="-1" x="-1"/>
 </g>
 <g>
  <title>Layer 1</title>
  <g transform="rotate(-180 68.5,18.999998092651367) " fill-rule="evenodd" fill="none" id="1366x768">
   <g fill="#FFD782" id="2.2.1敏捷建模-能力模型详情-第一次进入">
    <g id="Group-4">
     <g transform="rotate(-180 68.5,19) translate(-68.5,-19) " id="btn_bullet_complete">
      <path id="Combined-Shape" d="m186.60761,57l-42.91922,0c-17.76719,0 -39.65369,-4.19235 -39.65369,-4.19235c-0.51919,-0.10825 -1.03072,-0.2165 -1.5347,-0.32472l0,-28.95471c0.50398,-0.10822 1.01551,-0.21647 1.5347,-0.32472c0,0 21.8865,-4.45468 39.65369,-4.19235l42.92235,0c2.26827,8.0838 3.4024,14.41342 3.4024,18.98885c0,4.57753 -1.13518,10.91087 -3.40553,19zm5.80573,0c2.07529,-8.13298 3.11293,-14.46631 3.11293,-19c0,-4.53162 -1.03669,-10.86124 -3.11009,-18.98885l6.80658,0c7.98294,0 9.0129,37.98885 -0.77241,37.98885l-6.03701,0zm-95.91334,-5.88698c-24.43323,-5.93871 -27.22753,-11.40463 -27.22753,-11.40463c-1.02996,-1.04822 -1.02996,-2.35741 0,-3.40564c0,0 2.7943,-5.46591 27.22753,-11.40462l0,26.21489zm-1.81054,-23.1438c-9.50451,1.1747 -19.67375,7.19016 -19.67375,7.19016c4.75422,-1.96437 20.44887,-5.77123 20.44887,-5.77123l-0.15317,-0.96705c-0.17519,-0.41284 -0.08504,-0.53692 -0.62195,-0.45188z"/>
     </g>
    </g>
   </g>
  </g>
 </g>
</svg>