<?xml version="1.0" encoding="UTF-8" standalone="no"?>
<svg width="139px" height="40px" viewBox="0 0 139 40" version="1.1" xmlns="http://www.w3.org/2000/svg" xmlns:xlink="http://www.w3.org/1999/xlink">
    <!-- Generator: sketchtool 49.3 (51167) - http://www.bohemiancoding.com/sketch -->
    <title>337524E6-B54D-4047-AF4A-AC9CF61417D0</title>
    <desc>Created with sketchtool.</desc>
    <defs></defs>
    <g id="1366x768" stroke="none" stroke-width="1" fill="none" fill-rule="evenodd">
        <g id="2.2.1敏捷建模-能力模型详情-第一次进入" transform="translate(-613.000000, -187.000000)" stroke="#FFD782" stroke-width="2">
            <g id="Group-3" transform="translate(614.000000, 188.000000)">
                <path d="M118.107613,38 L75.1883881,38 C57.4212033,38 35.5347035,33.8076504 35.5347035,33.8076504 C35.0155064,33.6993987 34.5039758,33.591147 34,33.482925 L34,4.52822235 C34.5039758,4.42000032 35.0155064,4.31174865 35.5347035,4.2034969 C35.5347035,4.2034969 57.4212033,-0.251180363 75.1883881,0.0111473094 L118.110741,0.0111473094 C120.379005,8.09495363 121.513137,14.4245712 121.513137,19 C121.513137,23.5775317 120.377962,29.9108651 118.107613,38 Z M123.913336,38 C125.988627,29.8670237 127.026273,23.5336904 127.026273,19 C127.026273,14.4683811 125.989575,8.13876358 123.91618,0.0111473094 L130.722758,0.0111473094 C138.705701,0.0111473094 139.735663,38 129.950353,38 L123.913336,38 Z M28,32.1130185 C3.56677057,26.1743114 0.772471773,20.7083929 0.772471773,20.7083929 C-0.257490591,19.6601695 -0.257490591,18.3509778 0.772471773,17.3027544 C0.772471773,17.3027544 3.56677057,11.8368359 28,5.89812877 L28,32.1130185 Z" id="btn_bullet_highlight"></path>
            </g>
        </g>
    </g>
</svg>