<?xml version="1.0" encoding="UTF-8" standalone="no"?>
<svg width="110px" height="32px" viewBox="0 0 110 32" version="1.1" xmlns="http://www.w3.org/2000/svg" xmlns:xlink="http://www.w3.org/1999/xlink">
    <!-- Generator: sketchtool 49.3 (51167) - http://www.bohemiancoding.com/sketch -->
    <title>C1C72047-6667-4D3C-87E3-9131F4E6830F</title>
    <desc>Created with sketchtool.</desc>
    <defs></defs>
    <g id="1366x768" stroke="none" stroke-width="1" fill="none" fill-rule="evenodd">
        <g id="2.2.2敏捷建模-能力模型-1" transform="translate(-538.000000, -109.000000)" fill="#FFD782">
            <g id="Group-13" transform="translate(538.000000, 108.000000)">
                <g id="btn_bullet_complete_R" transform="translate(55.000000, 17.000000) rotate(-180.000000) translate(-55.000000, -17.000000) translate(0.000000, 2.000000)">
                    <path d="M94.7577321,30.2554745 L60.2803064,30.2554745 C46.2535816,30.2554745 28.9747659,26.8893543 28.9747659,26.8893543 C28.4046368,26.7684588 27.8462172,26.6475633 27.2992701,26.5267319 L27.2992701,3.48221849 C27.8462172,3.36138705 28.4046368,3.24049161 28.9747659,3.11959605 C28.9747659,3.11959605 46.2535816,-0.457152116 60.2803064,-0.246524058 L94.7603057,-0.246524058 C96.6302967,6.2576121 97.5652922,11.3397868 97.5652922,15 C97.5652922,18.661892 96.6294388,23.7470501 94.7577321,30.2554745 Z M99.4259159,30.2554745 C101.136571,23.7117199 101.991898,18.6265618 101.991898,15 C101.991898,11.3750918 101.137351,6.29291714 99.4282554,-0.246524058 L104.12323,-0.246524058 C110.425553,-0.246524058 111.238681,30.2554745 103.513436,30.2554745 L99.4259159,30.2554745 Z M22.4817518,25.3930539 C3.69525261,20.6774942 1.53089877,16.3717023 1.53089877,16.3717023 C0.717770586,15.5300631 0.717770586,14.4788873 1.53089877,13.6372481 C1.53089877,13.6372481 3.69525261,9.3314562 22.4817518,4.61589649 L22.4817518,25.3930539 Z M20.8951414,7.05435898 C13.3908986,7.97741574 5.37169986,12.7842404 5.37169986,12.7842404 C9.12251213,11.2175317 21.5102842,8.19479163 21.5102842,8.19479163 L21.3873039,7.41832463 C21.2480807,7.08662202 21.3190241,6.98722257 20.8951414,7.05435898 Z" id="Combined-Shape" transform="translate(55.000000, 15.000000) rotate(-180.000000) translate(-55.000000, -15.000000) "></path>
                </g>
            </g>
        </g>
    </g>
</svg>