<svg xmlns="http://www.w3.org/2000/svg" width="13" height="14" viewBox="0 0 13 14">
    <g fill="none" fill-rule="evenodd">
        <path d="M0 0H14V14H0z" transform="translate(-1)"/>
        <path fill="#6E8AE5" d="M11.893 12.055l1.375 1.393c.128.126.128.333 0 .458-.124.117-.324.125-.444 0l-1.383-1.393c-.267.223-.568.407-.889.548-.413.168-.861.27-1.336.27-.46 0-.912-.102-1.322-.27-.42-.184-.807-.446-1.128-.77-.32-.318-.58-.705-.757-1.14l-.008-.015c-.158-.411-.255-.865-.255-1.334 0-.47.097-.924.263-1.343.178-.43.437-.817.757-1.142.626-.638 1.495-1.03 2.45-1.03.475 0 .923.09 1.336.267.421.18.804.438 1.124.763l.016.012c.317.324.564.708.738 1.13l.007.02c.167.407.26.857.26 1.323 0 .485-.101.927-.267 1.35-.128.328-.317.63-.537.903zM2.69 0c-.395 0-.75.164-1.005.426-.255.259-.413.623-.413 1.014v11.116c0 .4.158.767.413 1.018h.008c.247.262.602.426.997.426l3.252-.004c.294 0 .533-.239.533-.532 0-.301-.239-.54-.533-.54H2.691c-.1 0-.19-.043-.26-.106l.008-.004c-.07-.066-.104-.156-.104-.258V1.44c0-.094.035-.188.104-.254.062-.063.151-.102.252-.102h5.976v2.45c0 .328.131.625.34.848l.011.012c.225.23.522.364.858.364h2.426v1.726c0 .297.244.536.53.536.293 0 .529-.24.529-.536V4.44c0-.14-.047-.274-.155-.383L9.358.16C9.266.063 9.134 0 8.988 0H2.69zm9.067 4.108H9.876c-.158 0-.297-.058-.402-.172l-.019-.011c-.097-.102-.147-.24-.147-.392V1.628l2.45 2.48zm-1.45 3.037c-.335-.137-.702-.212-1.092-.212-1.136 0-2.187.709-2.616 1.773-.143.34-.212.708-.212 1.096 0 .395.07.75.204 1.083l.008.016c.14.352.352.67.618.931.255.266.572.49.92.63.332.141.703.215 1.078.215.39 0 .757-.074 1.093-.215.34-.14.649-.364.915-.614v-.016h.008c.255-.254.468-.579.61-.93.136-.334.217-.705.217-1.1 0-.384-.074-.748-.209-1.073l-.008-.023c-.142-.344-.347-.657-.602-.916l-.016-.015c-.262-.266-.575-.482-.915-.63z" transform="translate(-1)"/>
    </g>
</svg>
