<svg xmlns="http://www.w3.org/2000/svg" width="14" height="14" viewBox="0 0 14 14">
    <g fill="none" fill-rule="evenodd">
        <path d="M0 0H14V14H0z"/>
        <path fill="#D2D2D3" d="M9.816 6.994c0 .106-.036.208-.101.291l-2.317 4.011c-.083.148-.239.24-.408.241-.17.001-.326-.09-.41-.237-.084-.147-.082-.328.005-.473l1.942-3.365H4.67c-.185.008-.357-.095-.439-.261-.081-.167-.058-.365.06-.508l2.31-3.997c.129-.224.416-.301.64-.172.225.13.303.417.173.642l-1.94 3.359h3.872c.26 0 .47.21.47.469zm.137 4.613c.26 0 .47.21.47.47v1.436c0 .26-.21.47-.47.47-.259 0-.47-.21-.47-.47v-1.437c0-.258.21-.469.47-.469zm1.783-2.033c.26 0 .47.21.47.469v3.47c0 .26-.21.47-.47.47-.259 0-.469-.21-.469-.47v-3.47c0-.26.21-.47.47-.47zm1.785.75c.258 0 .469.21.469.47v2.72c0 .258-.21.468-.47.468-.259 0-.469-.21-.469-.469v-2.72c0-.258.21-.469.47-.469z"/>
        <path stroke="#D2D2D3" stroke-linecap="round" stroke-linejoin="round" stroke-width="1.167" d="M13.316 8.136c.066-.369.1-.748.1-1.136C13.417 3.456 10.545.583 7 .583 3.456.583.583 3.456.583 7c0 3.544 2.873 6.417 6.417 6.417"/>
    </g>
</svg>
