<svg xmlns="http://www.w3.org/2000/svg" width="12" height="14" viewBox="0 0 12 14">
    <g fill="none" fill-rule="evenodd">
        <path d="M0 0H14V14H0z" transform="translate(-1)"/>
        <path fill="#D2D2D3" d="M5.866 3.355c-.173 0-.318-.149-.318-.329 0-.18.145-.32.318-.32H8.14c.173 0 .31.14.31.32s-.137.329-.31.329H5.866zM3.616 0h6.773c.287 0 .525.246.525.54v3.167c0 .258-.188.48-.43.524l-2.767.743.92 2.236 2.969.254c.291.024.506.282.483.575-.015.164-.088.301-.21.387L9.65 10.381l.68 2.956c.073.29-.108.575-.392.65-.153.035-.307 0-.43-.087L7 12.348l-2.55 1.572c-.245.156-.568.074-.717-.184-.077-.125-.092-.266-.066-.399l.68-2.956-2.25-1.978c-.226-.192-.25-.536-.057-.755.088-.117.218-.176.357-.184l2.967-.254.918-2.236-2.803-.751c-.234-.059-.391-.282-.391-.516V.54c0-.294.234-.54.53-.54zm6.239 1.075H4.142v2.213L7 4.058l2.856-.77V1.075zM7.793 7.922L7 6.006l-.772 1.873c-.07.2-.242.352-.46.371l-2.035.172 1.52 1.342c.165.12.238.336.196.547l-.465 2.033 1.735-1.075c.17-.106.377-.113.553-.004l1.75 1.08-.471-2.034h.003c-.038-.18.02-.395.166-.528l1.55-1.36-2.034-.173v-.004c-.184-.015-.365-.133-.442-.324zm-3.11-5.748c-.176 0-.318-.145-.318-.325 0-.183.142-.32.319-.32h4.633c.177 0 .315.137.315.32 0 .18-.138.325-.315.325H4.684z" transform="translate(-1)"/>
    </g>
</svg>
