<svg xmlns="http://www.w3.org/2000/svg" width="10" height="10" viewBox="0 0 10 10">
    <g fill="none" fill-rule="evenodd">
        <path d="M0 0h10v10H0z"/>
        <path fill="#818182" d="M5.367.26L6.37 3.298l3.25-.005c.213 0 .381.17.381.376a.37.37 0 0 1-.157.305L7.208 5.843l1.013 3.036a.38.38 0 1 1-.593.417L5 7.421 2.374 9.296a.382.382 0 0 1-.534-.077.362.362 0 0 1-.05-.357l1.004-3.02L.159 3.975a.367.367 0 0 1-.084-.525.377.377 0 0 1 .31-.156l3.254.005L4.637.26a.381.381 0 0 1 .479-.242.379.379 0 0 1 .251.242z"/>
    </g>
</svg>
