<svg xmlns="http://www.w3.org/2000/svg" width="175" height="69" viewBox="0 0 175 69">
    <defs>
        <filter id="v1my3y15da" width="112.3%" height="235%" x="-6.1%" y="-67.5%" filterUnits="objectBoundingBox">
            <feGaussianBlur in="SourceGraphic" stdDeviation="1.191"/>
        </filter>
    </defs>
    <g fill="none" fill-rule="evenodd" transform="translate(0 .176)">
        <path fill="#9AAFF5" d="M106.77 1.666c17.661 2.52-3.163 8.634 8.22 10.17 11.384 1.538 40.3 1.547 46.102 1.547s17.915 5.601 12.052 14.97c-2.965 4.557-22.012 7.183-12.052 17.8 0 0 16.228 6.803 6.619 16.055-9.61 9.25-61.67 6.95-66.85 4.115-5.18-2.833-1.343-5.73 1.403-6.862 2.746-1.132 3.476-6.418-9.708-6.418-13.184 0-47.086 5.17-53.483-2.053-6.398-7.224 5.047-3.463 2.523-9.414-2.523-5.952-26.92-4.048-29.92-4.048C8.672 37.528 0 35.624 0 28.354s9.254-10.767 15.98-10.767c4.482 0 15.623-.364 33.422-1.093 6.39.271 8.318-1.281 5.786-4.657-3.8-5.064-3.712-9.278 8.276-10.171 11.989-.894 20.03-3.254 43.306 0zM93.53 62.16c0 2.037-2.743 6.637-11.343 4.208-2.375-1.102-4.827-5.377 0-7.466 4.827-2.09 11.342 1.22 11.342 3.258zm74.574-24.719c2.56-1.135 7.53.27 6.451 4.054-1.079 3.785-5.883 2.667-7.597 1.59-1.714-1.077-1.414-4.508 1.146-5.644zM39.134 3.53c9.492 0 10.697 5.013 5.348 6.58-3.565 1.046-7.6.38-12.106-1.997-1.823-3.055.43-4.583 6.758-4.583z"/>
        <ellipse cx="88.235" cy="62.647" fill="#819AEC" rx="5.294" ry="2.647"/>
        <path fill="#819AEC" d="M35.433 34.771c-2.304 0-8.962-1.405-8.962-6.774 0-5.37 7.104-7.95 12.266-7.95 3.442 0 11.995-.27 25.658-.808 4.906.2 6.386-.946 4.442-3.44-2.916-3.738-2.85-6.85 6.354-7.51 9.203-.66 15.376-2.403 33.245 0 13.558 1.86-2.429 6.376 6.31 7.51 8.74 1.136 30.937 1.142 35.391 1.142 4.454 0 13.753 4.137 9.252 11.056-2.276 3.364-16.898 5.304-9.252 13.144 0 0 12.458 5.024 5.081 11.856-7.377 6.831-47.343 5.132-51.319 3.04-3.976-2.094-1.03-4.232 1.077-5.068 2.108-.836 2.669-4.74-7.452-4.74s-36.147 3.818-41.058-1.516c-4.911-5.335 3.875-2.557 1.937-6.952-1.937-4.395-20.665-2.99-22.97-2.99z"/>
        <ellipse cx="105" cy="41.471" fill="#4C65B8" filter="url(#v1my3y15da)" rx="29.118" ry="2.647"/>
    </g>
</svg>
