<svg width="40px" height="120px" viewBox="0 0 40 120" version="1.1" xmlns="http://www.w3.org/2000/svg" xmlns:xlink="http://www.w3.org/1999/xlink">
    <defs>
        <polygon id="path-1" points="2.88 0 21.12 0 24 82 -3.54796192e-13 82"></polygon>
    </defs>
    <g stroke="none" stroke-width="1" fill="none" fill-rule="evenodd">
        <g transform="translate(-1183.000000, -327.000000)">
            <g transform="translate(1183.000000, 327.000000)">
                <rect fill="#FFFFFF" x="7" y="24" width="26" height="6"></rect>
                <rect fill="#FFFFFF" x="16" y="13" width="8" height="11"></rect>
                <rect fill="#54A4B2" x="10" y="13" width="6" height="11"></rect>
                <rect fill="#54A4B2" x="24" y="13" width="6" height="11"></rect>
                <polygon fill="#D5504C" points="20 0 33 13 7 13"></polygon>
                <rect fill="#FFFFFF" x="0" y="112" width="40" height="8"></rect>
                <g transform="translate(8.000000, 30.000000)">
                    <mask id="mask-2" fill="white">
                        <use xlink:href="#path-1"></use>
                    </mask>
                    <use fill="#D8D8D8" xlink:href="#path-1"></use>
                    <rect fill="#D5504C" mask="url(#mask-2)" x="1" y="0" width="22" height="9"></rect>
                    <rect fill="#D5504C" mask="url(#mask-2)" x="1" y="16" width="22" height="11"></rect>
                    <rect fill="#D5504C" mask="url(#mask-2)" x="-1" y="36" width="26" height="9"></rect>
                    <rect fill="#D5504C" mask="url(#mask-2)" x="-1" y="55" width="26" height="9"></rect>
                    <rect fill="#D5504C" mask="url(#mask-2)" x="-1" y="72" width="28" height="10"></rect>
                    <rect fill="#FFFFFF" mask="url(#mask-2)" x="-1" y="27" width="26" height="9"></rect>
                    <rect fill="#FFFFFF" mask="url(#mask-2)" x="-1" y="45" width="26" height="10"></rect>
                    <rect fill="#FFFFFF" mask="url(#mask-2)" x="0" y="64" width="25" height="8"></rect>
                    <rect fill="#FFFFFF" mask="url(#mask-2)" x="1" y="9" width="22" height="7"></rect>
                </g>
                <polygon id="路径-27" fill="#E3969C" points="20 -2.30926389e-13 20 13 27 13"></polygon>
            </g>
        </g>
    </g>
</svg>