<svg xmlns="http://www.w3.org/2000/svg" width="153" height="127" viewBox="0 0 153 127">
    <defs>
        <filter id="orvy6q7dna" width="157.9%" height="174.3%" x="-28.9%" y="-37.2%" filterUnits="objectBoundingBox">
            <feOffset dx="7" dy="14" in="SourceAlpha" result="shadowOffsetOuter1"/>
            <feGaussianBlur in="shadowOffsetOuter1" result="shadowBlurOuter1" stdDeviation="3.5"/>
            <feColorMatrix in="shadowBlurOuter1" result="shadowMatrixOuter1" values="0 0 0 0 0.403023098 0 0 0 0 0.321694648 0 0 0 0 0.211087955 0 0 0 0.396989729 0"/>
            <feMerge>
                <feMergeNode in="shadowMatrixOuter1"/>
                <feMergeNode in="SourceGraphic"/>
            </feMerge>
        </filter>
    </defs>
    <g fill="none" fill-rule="evenodd" filter="url(#orvy6q7dna)" transform="translate(0 -3)">
        <path fill="#9A7849" d="M69.65 108.5c43.925 0 69.65-33.312 69.65-43.75 0-10.438-31.183-18.9-69.65-18.9C31.183 45.85 0 54.312 0 64.75c0 10.438 25.725 43.75 69.65 43.75z"/>
        <path fill="#F4E5C2" d="M.341 66.5C0 69.218 7.453 80.76 11.08 81.89c3.626 1.13 4.838-.795 6.421-.795 1.583 0 3.077 3.308 6.125 3.308s3.324-.67 4.725-.67c1.4 0 6.368 7.787 7.927 7.787 1.56 0 6.966-5.08 9.16-5.08s3.865 4.158 7.195 4.158 8.527-2.843 11.104-2.843c2.578 0 2.733 3.765 4.937 3.765s7.719-3.765 13.463-3.765c5.744 0 12.093 4.866 18.854 2.843 6.761-2.022 4.261-5.023 10.2-6.865 5.94-1.843 14.562-1.139 17.257-2.638 2.695-1.499 8.47-6.973 10.29-14.595 1.213-5.081-43.742-4.906-134.865.525C1.745 64.863.568 64.688.342 66.5z"/>
        <ellipse cx="69.65" cy="64.75" fill="#A1BB76" rx="69.65" ry="18.9"/>
        <g>
            <path fill="#9D9DBA" d="M87.603 26.945L106.68 65.1H65.52l19.077-38.155c.415-.83 1.424-1.166 2.254-.751.325.163.59.426.752.751z" transform="translate(15.4)"/>
            <path fill="#857AA3" d="M56.224 4.508L86.1 64.26H21.84L51.716 4.508c.622-1.245 2.136-1.75 3.381-1.127.488.244.883.64 1.127 1.127z" transform="translate(15.4)"/>
            <path fill="#8988A5" d="M28.294 20.888L52.08 68.46H0l23.786-47.572c.622-1.245 2.136-1.75 3.381-1.127.488.244.883.64 1.127 1.127z" transform="translate(15.4)"/>
            <path fill="#F2F2F2" d="M28.285 20.932l2.74 5.555v2.736l-3.027-1.436-2.815 3.346-2.48-3.346-3.362 1.991 4.43-8.859c.622-1.245 2.136-1.75 3.38-1.127.492.246.89.646 1.134 1.14zM56.26 4.46l2.96 5.898v2.804l-3.155-1.472-2.935 3.43-2.586-3.43-3.504 2.04 4.722-9.283c.631-1.24 2.148-1.735 3.389-1.104.48.244.868.635 1.11 1.116zM87.6 26.951l1.709 3.43.151 1.603-1.958-.9-1.822 2.096-1.605-2.096L81.9 32.33l2.694-5.383c.415-.83 1.425-1.165 2.254-.75.326.163.59.427.752.753z" transform="translate(15.4)"/>
        </g>
        <path fill="#A1BB76" d="M109.55 50.75c7.829 0 14.175 9.149 14.175 15.98 0 6.832-6.346 12.37-14.175 12.37-5.305 0-9.93-2.543-12.36-6.309-2.04 1.299-4.921 2.109-8.115 2.109-5.001 0-9.236-1.986-10.675-4.728-3.263 2.741-12.266 4.728-17.285 4.728-5.075 0-9.364-2.03-10.76-4.82-1.534 1.21-4.31 2.02-7.48 2.02-3.346 0-6.254-.902-7.726-2.226-2.033 1.348-5.34 2.226-9.074 2.226-6.186 0-11.2-2.408-11.2-5.38 0-2.97 5.014-8.27 11.2-8.27 5.043 0 9.308 3.523 10.711 6.434 1.575-.733 3.722-1.184 6.089-1.184 3.214 0 6.023.832 7.545 2.071 1.459-3.362 5.695-6.971 10.695-6.971 5.072 0 14.216 3.716 17.39 7.12 1.803-3.404 7.203-7.12 12.258-7.12 2.415 0 4.394.848 5.91 2.105 2.243-5.286 7.166-10.155 12.877-10.155z"/>
        <g transform="translate(91 61.25)">
            <rect width="2.625" height="5.25" x="5.25" y="9.625" fill="#886738" rx="1.313"/>
            <ellipse cx="6.125" cy="5.542" fill="#799844" rx="6.125" ry="5.542"/>
            <ellipse cx="12.25" cy="8.167" fill="#CCD751" rx="3.5" ry="3.208"/>
            <path stroke="#886738" stroke-linecap="round" stroke-linejoin="round" stroke-width=".875" d="M7.583 12.25c2.322-.039 3.632-.525 3.93-1.458"/>
        </g>
        <g transform="translate(112.875 47.25)">
            <rect width="2.042" height="4.083" x="4.083" y="7.486" fill="#886738" rx="1.021"/>
            <ellipse cx="4.764" cy="4.31" fill="#799844" rx="4.764" ry="4.31"/>
            <ellipse cx="9.528" cy="6.352" fill="#CCD751" rx="2.722" ry="2.495"/>
            <path stroke="#886738" stroke-linecap="round" stroke-linejoin="round" stroke-width=".681" d="M5.898 9.528c1.806-.03 2.825-.409 3.056-1.134"/>
        </g>
        <g transform="translate(13.125 54.25)">
            <rect width="1.75" height="3.5" x="3.5" y="6.417" fill="#886738" rx=".875"/>
            <ellipse cx="4.083" cy="3.694" fill="#799844" rx="4.083" ry="3.694"/>
            <ellipse cx="8.167" cy="5.444" fill="#CCD751" rx="2.333" ry="2.139"/>
            <path stroke="#886738" stroke-linecap="round" stroke-linejoin="round" stroke-width=".656" d="M5.056 8.167c1.547-.026 2.42-.35 2.619-.973"/>
        </g>
    </g>
</svg>
