<svg xmlns="http://www.w3.org/2000/svg" width="109" height="52" viewBox="0 0 109 52">
    <path fill="#70AEE3" fill-rule="evenodd" d="M40.718 47.51c-8.552.28-17.472.553-25.737-1.994-6.106-1.882-12.508-6.017-10.944-13.158.896-4.091 3.834-7.342 7.072-9.832C17.702 17.453 25.863 13.804 33.646 11 48.16 5.77 67.082 1.94 82.34 6.042c6.67 1.793 11.642 6.977 9.994 14.086-1.06 4.566-4.547 8.754-7.576 12.225-3.866 4.429-8.348 8.192-13.268 11.328a88.634 88.634 0 0 1-5.348 1.247c-8.365 1.676-16.908 2.303-25.424 2.582m65.174-25.62c-4.304 5.736-9.575 10.308-15.472 13.899 6.486-7.54 9.65-16.457 2.912-24.89C81.687-3.682 58.497-.66 42.436 3.1 32.431 5.444 22.743 9.242 13.854 14.37 6.406 18.668-2.812 26.142.815 35.885c2.268 6.089 8.95 10.008 14.774 12.046 9.912 3.47 20.984 2.762 31.296 2.194 5.702-.313 11.518-.9 17.267-1.894.478 1.226 3.128 4.314 4.462 3.686 4.03-1.897 9.035-4.868 13.723-8.535 10.242-3.885 19.524-9.788 26.584-18.671.616-.776-2.55-3.46-3.03-2.821"/>
</svg>
