<svg xmlns="http://www.w3.org/2000/svg" width="115" height="64" viewBox="0 0 115 64">
    <path fill="#4E4E4E" fill-rule="evenodd" d="M114.853 21.569c-3.898 15.314-15.142 27.589-29.263 34.408-16.313 7.878-34.853 6.99-52.054 2.754-8.504-2.094-17.65-5.09-23.978-11.432C2.731 40.46.9 30.744 6.532 22.583c9.7-14.062 30.67-18.866 46.735-18.435C71.78 4.644 97.523 14.62 93.059 37.69c-.13.68.704 1.315 1.008.494C100.724 20.162 83.452 5.916 67.714 2.02 48.9-2.635 24.93.581 9.854 13.464 3.994 18.471-.312 25.485.018 33.39c.354 8.475 5.854 15.764 12.761 20.291 17.323 11.355 42.245 12.676 61.744 7.19 19.12-5.38 35.648-19.566 40.474-39.23.024-.099-.114-.19-.144-.071"/>
</svg>
