<svg xmlns="http://www.w3.org/2000/svg" width="85" height="57" viewBox="0 0 85 57">
    <path fill="#696969" fill-rule="evenodd" d="M77.924 36.868c-5.54 6.144-13.641 10.187-21.397 13.658-.869.389-1.747.764-2.63 1.13-13.887-.24-29.264-1.742-41.481-7.385C5.054 40.87-1.043 34.648 1.46 26.7c2.115-6.711 8.986-11.58 15.276-15.079C30.059 4.211 48.25-1.244 63.963 2.043c7.633 1.597 14.927 5.67 18.468 12.17 4.166 7.648 1.167 16.363-4.507 22.655M73.962 4.71C58.234-4.385 35.65 1.23 20.458 8.604 9.445 13.949-6.872 25.97 3.102 38.397c4.44 5.533 12.246 8.214 19.308 9.885 9.958 2.356 20.22 3.527 30.504 3.776-7.759 3.103-16.04 5.062-24.523 3.121-.621-.142-.624.905-.049 1.036 9.141 2.091 18.11-.276 26.43-3.787.256-.108.515-.22.772-.33.983.01 1.966.023 2.95.015.218-.001.18-.416-.032-.416-.647 0-1.304-.005-1.959-.01 8.067-3.495 16.304-7.784 22.027-14.043 9.72-10.63 8.718-25.25-4.568-32.933"/>
</svg>
